<mxfile host="app.diagrams.net" modified="2023-06-07T09:14:34.159Z" agent="Mozilla/5.0 (Windows NT 10.0; Win64; x64) AppleWebKit/537.36 (KHTML, like Gecko) Chrome/114.0.0.0 Safari/537.36" etag="KcWzjuTCifpTDNDEfgiX" version="21.3.7" type="github">
  <diagram name="Trang-1" id="cnOSumTbthVu8hze1_SV">
    <mxGraphModel dx="2805" dy="955" grid="1" gridSize="10" guides="1" tooltips="1" connect="1" arrows="1" fold="1" page="1" pageScale="1" pageWidth="827" pageHeight="1169" math="0" shadow="0">
      <root>
        <mxCell id="0" />
        <mxCell id="1" parent="0" />
        <mxCell id="IhOkM0QZsy-EgQr038lC-6" value="User" style="rounded=0;whiteSpace=wrap;html=1;" parent="1" vertex="1">
          <mxGeometry x="160" y="130" width="120" height="60" as="geometry" />
        </mxCell>
        <mxCell id="0aDd8CedD71GwJp79W3B-3" style="edgeStyle=orthogonalEdgeStyle;rounded=0;orthogonalLoop=1;jettySize=auto;html=1;exitX=1;exitY=1;exitDx=0;exitDy=0;entryX=0;entryY=0;entryDx=0;entryDy=0;" edge="1" parent="1" source="IhOkM0QZsy-EgQr038lC-8" target="IhOkM0QZsy-EgQr038lC-6">
          <mxGeometry relative="1" as="geometry">
            <Array as="points">
              <mxPoint x="160" y="71" />
            </Array>
          </mxGeometry>
        </mxCell>
        <mxCell id="IhOkM0QZsy-EgQr038lC-8" value="Tên" style="ellipse;whiteSpace=wrap;html=1;" parent="1" vertex="1">
          <mxGeometry x="40" y="20" width="110" height="60" as="geometry" />
        </mxCell>
        <mxCell id="0aDd8CedD71GwJp79W3B-4" style="edgeStyle=orthogonalEdgeStyle;rounded=0;orthogonalLoop=1;jettySize=auto;html=1;exitX=0.5;exitY=1;exitDx=0;exitDy=0;entryX=0.5;entryY=0;entryDx=0;entryDy=0;" edge="1" parent="1" source="IhOkM0QZsy-EgQr038lC-9" target="IhOkM0QZsy-EgQr038lC-6">
          <mxGeometry relative="1" as="geometry">
            <Array as="points">
              <mxPoint x="220" y="60" />
            </Array>
          </mxGeometry>
        </mxCell>
        <mxCell id="IhOkM0QZsy-EgQr038lC-9" value="Email" style="ellipse;whiteSpace=wrap;html=1;" parent="1" vertex="1">
          <mxGeometry x="160" y="10" width="120" height="60" as="geometry" />
        </mxCell>
        <mxCell id="0aDd8CedD71GwJp79W3B-8" style="edgeStyle=orthogonalEdgeStyle;rounded=0;orthogonalLoop=1;jettySize=auto;html=1;exitX=0;exitY=1;exitDx=0;exitDy=0;entryX=1;entryY=0;entryDx=0;entryDy=0;" edge="1" parent="1" source="IhOkM0QZsy-EgQr038lC-10" target="IhOkM0QZsy-EgQr038lC-6">
          <mxGeometry relative="1" as="geometry" />
        </mxCell>
        <mxCell id="IhOkM0QZsy-EgQr038lC-10" value="SDT" style="ellipse;whiteSpace=wrap;html=1;" parent="1" vertex="1">
          <mxGeometry x="307.5" y="10" width="106" height="60" as="geometry" />
        </mxCell>
        <mxCell id="0aDd8CedD71GwJp79W3B-2" value="" style="edgeStyle=orthogonalEdgeStyle;rounded=0;orthogonalLoop=1;jettySize=auto;html=1;" edge="1" parent="1" source="IhOkM0QZsy-EgQr038lC-11" target="IhOkM0QZsy-EgQr038lC-6">
          <mxGeometry relative="1" as="geometry">
            <Array as="points">
              <mxPoint x="140" y="150" />
              <mxPoint x="140" y="150" />
            </Array>
          </mxGeometry>
        </mxCell>
        <mxCell id="IhOkM0QZsy-EgQr038lC-11" value="Mật khẩu" style="ellipse;whiteSpace=wrap;html=1;" parent="1" vertex="1">
          <mxGeometry y="100" width="100" height="60" as="geometry" />
        </mxCell>
        <mxCell id="0aDd8CedD71GwJp79W3B-9" style="edgeStyle=orthogonalEdgeStyle;rounded=0;orthogonalLoop=1;jettySize=auto;html=1;exitX=0;exitY=0.5;exitDx=0;exitDy=0;entryX=1;entryY=0.5;entryDx=0;entryDy=0;" edge="1" parent="1" source="IhOkM0QZsy-EgQr038lC-12" target="IhOkM0QZsy-EgQr038lC-6">
          <mxGeometry relative="1" as="geometry" />
        </mxCell>
        <mxCell id="IhOkM0QZsy-EgQr038lC-12" value="Mật khẩu" style="ellipse;whiteSpace=wrap;html=1;" parent="1" vertex="1">
          <mxGeometry x="340" y="85" width="104" height="50" as="geometry" />
        </mxCell>
        <mxCell id="IhOkM0QZsy-EgQr038lC-13" value="Ngày sinh" style="ellipse;whiteSpace=wrap;html=1;" parent="1" vertex="1">
          <mxGeometry x="-10" y="170" width="104" height="50" as="geometry" />
        </mxCell>
        <mxCell id="IhOkM0QZsy-EgQr038lC-14" value="" style="endArrow=classic;html=1;rounded=0;entryX=0;entryY=0.5;entryDx=0;entryDy=0;exitX=0.981;exitY=0.407;exitDx=0;exitDy=0;exitPerimeter=0;" parent="1" source="IhOkM0QZsy-EgQr038lC-13" target="IhOkM0QZsy-EgQr038lC-6" edge="1">
          <mxGeometry width="50" height="50" relative="1" as="geometry">
            <mxPoint x="110" y="180" as="sourcePoint" />
            <mxPoint x="150" y="130" as="targetPoint" />
          </mxGeometry>
        </mxCell>
        <mxCell id="0aDd8CedD71GwJp79W3B-13" value="Type_Detail" style="whiteSpace=wrap;html=1;rounded=0;" vertex="1" parent="1">
          <mxGeometry x="770" y="130" width="120" height="60" as="geometry" />
        </mxCell>
        <mxCell id="0aDd8CedD71GwJp79W3B-15" value="Mua" style="rhombus;whiteSpace=wrap;html=1;" vertex="1" parent="1">
          <mxGeometry x="534" y="120" width="80" height="80" as="geometry" />
        </mxCell>
        <mxCell id="0aDd8CedD71GwJp79W3B-20" value="" style="edgeStyle=orthogonalEdgeStyle;rounded=0;orthogonalLoop=1;jettySize=auto;html=1;" edge="1" parent="1" source="0aDd8CedD71GwJp79W3B-16" target="0aDd8CedD71GwJp79W3B-15">
          <mxGeometry relative="1" as="geometry" />
        </mxCell>
        <mxCell id="0aDd8CedD71GwJp79W3B-16" value="Ngày bắt đầu" style="ellipse;whiteSpace=wrap;html=1;" vertex="1" parent="1">
          <mxGeometry x="480" y="40" width="90" height="50" as="geometry" />
        </mxCell>
        <mxCell id="0aDd8CedD71GwJp79W3B-19" value="" style="edgeStyle=orthogonalEdgeStyle;rounded=0;orthogonalLoop=1;jettySize=auto;html=1;" edge="1" parent="1" source="0aDd8CedD71GwJp79W3B-18" target="0aDd8CedD71GwJp79W3B-15">
          <mxGeometry relative="1" as="geometry" />
        </mxCell>
        <mxCell id="0aDd8CedD71GwJp79W3B-18" value="Ngày hết hạn" style="ellipse;whiteSpace=wrap;html=1;" vertex="1" parent="1">
          <mxGeometry x="580" y="40" width="90" height="50" as="geometry" />
        </mxCell>
        <mxCell id="0aDd8CedD71GwJp79W3B-21" value="" style="endArrow=none;html=1;rounded=0;entryX=0;entryY=0.5;entryDx=0;entryDy=0;" edge="1" parent="1" target="0aDd8CedD71GwJp79W3B-15">
          <mxGeometry width="50" height="50" relative="1" as="geometry">
            <mxPoint x="290" y="160" as="sourcePoint" />
            <mxPoint x="580" y="170" as="targetPoint" />
          </mxGeometry>
        </mxCell>
        <mxCell id="0aDd8CedD71GwJp79W3B-22" value="" style="endArrow=none;html=1;rounded=0;entryX=1;entryY=0.5;entryDx=0;entryDy=0;exitX=0;exitY=0.5;exitDx=0;exitDy=0;" edge="1" parent="1" source="0aDd8CedD71GwJp79W3B-13" target="0aDd8CedD71GwJp79W3B-15">
          <mxGeometry width="50" height="50" relative="1" as="geometry">
            <mxPoint x="530" y="20" as="sourcePoint" />
            <mxPoint x="580" y="-30" as="targetPoint" />
          </mxGeometry>
        </mxCell>
        <mxCell id="0aDd8CedD71GwJp79W3B-30" value="" style="edgeStyle=orthogonalEdgeStyle;rounded=0;orthogonalLoop=1;jettySize=auto;html=1;" edge="1" parent="1" source="0aDd8CedD71GwJp79W3B-24" target="0aDd8CedD71GwJp79W3B-13">
          <mxGeometry relative="1" as="geometry" />
        </mxCell>
        <mxCell id="0aDd8CedD71GwJp79W3B-24" value="Loại" style="ellipse;whiteSpace=wrap;html=1;" vertex="1" parent="1">
          <mxGeometry x="730" y="40" width="90" height="50" as="geometry" />
        </mxCell>
        <mxCell id="0aDd8CedD71GwJp79W3B-31" value="" style="edgeStyle=orthogonalEdgeStyle;rounded=0;orthogonalLoop=1;jettySize=auto;html=1;" edge="1" parent="1" source="0aDd8CedD71GwJp79W3B-25" target="0aDd8CedD71GwJp79W3B-13">
          <mxGeometry relative="1" as="geometry" />
        </mxCell>
        <mxCell id="0aDd8CedD71GwJp79W3B-25" value="Giá" style="ellipse;whiteSpace=wrap;html=1;" vertex="1" parent="1">
          <mxGeometry x="820" y="15" width="90" height="50" as="geometry" />
        </mxCell>
        <mxCell id="0aDd8CedD71GwJp79W3B-28" value="Thời hạn" style="ellipse;whiteSpace=wrap;html=1;" vertex="1" parent="1">
          <mxGeometry x="917" y="35" width="90" height="50" as="geometry" />
        </mxCell>
        <mxCell id="0aDd8CedD71GwJp79W3B-34" value="" style="edgeStyle=orthogonalEdgeStyle;rounded=0;orthogonalLoop=1;jettySize=auto;html=1;exitX=0;exitY=0.5;exitDx=0;exitDy=0;" edge="1" parent="1" source="0aDd8CedD71GwJp79W3B-29" target="0aDd8CedD71GwJp79W3B-13">
          <mxGeometry relative="1" as="geometry">
            <Array as="points">
              <mxPoint x="990" y="160" />
            </Array>
          </mxGeometry>
        </mxCell>
        <mxCell id="0aDd8CedD71GwJp79W3B-29" value="hỗ trợ xem" style="ellipse;whiteSpace=wrap;html=1;" vertex="1" parent="1">
          <mxGeometry x="980" y="85" width="90" height="50" as="geometry" />
        </mxCell>
        <mxCell id="0aDd8CedD71GwJp79W3B-32" value="" style="endArrow=classic;html=1;rounded=0;entryX=0.692;entryY=0.017;entryDx=0;entryDy=0;entryPerimeter=0;exitX=0;exitY=1;exitDx=0;exitDy=0;" edge="1" parent="1" source="0aDd8CedD71GwJp79W3B-28" target="0aDd8CedD71GwJp79W3B-13">
          <mxGeometry width="50" height="50" relative="1" as="geometry">
            <mxPoint x="930" y="360" as="sourcePoint" />
            <mxPoint x="980" y="310" as="targetPoint" />
          </mxGeometry>
        </mxCell>
        <mxCell id="0aDd8CedD71GwJp79W3B-87" value="" style="group" vertex="1" connectable="0" parent="1">
          <mxGeometry x="-156" y="730" width="677" height="250" as="geometry" />
        </mxCell>
        <mxCell id="0aDd8CedD71GwJp79W3B-11" value="phim" style="rounded=0;whiteSpace=wrap;html=1;" vertex="1" parent="0aDd8CedD71GwJp79W3B-87">
          <mxGeometry x="316" width="120" height="60" as="geometry" />
        </mxCell>
        <mxCell id="0aDd8CedD71GwJp79W3B-36" value="Tên phim" style="ellipse;whiteSpace=wrap;html=1;" vertex="1" parent="0aDd8CedD71GwJp79W3B-87">
          <mxGeometry x="171" y="130" width="90" height="50" as="geometry" />
        </mxCell>
        <mxCell id="0aDd8CedD71GwJp79W3B-40" value="" style="edgeStyle=orthogonalEdgeStyle;rounded=0;orthogonalLoop=1;jettySize=auto;html=1;" edge="1" parent="0aDd8CedD71GwJp79W3B-87" source="0aDd8CedD71GwJp79W3B-38" target="0aDd8CedD71GwJp79W3B-11">
          <mxGeometry relative="1" as="geometry">
            <Array as="points">
              <mxPoint x="271" y="140" />
              <mxPoint x="376" y="140" />
            </Array>
          </mxGeometry>
        </mxCell>
        <mxCell id="0aDd8CedD71GwJp79W3B-38" value="Miêu tả" style="ellipse;whiteSpace=wrap;html=1;" vertex="1" parent="0aDd8CedD71GwJp79W3B-87">
          <mxGeometry x="226" y="200" width="90" height="50" as="geometry" />
        </mxCell>
        <mxCell id="0aDd8CedD71GwJp79W3B-41" value="ảnh bìa" style="ellipse;whiteSpace=wrap;html=1;" vertex="1" parent="0aDd8CedD71GwJp79W3B-87">
          <mxGeometry x="331" y="200" width="90" height="50" as="geometry" />
        </mxCell>
        <mxCell id="0aDd8CedD71GwJp79W3B-42" value="" style="endArrow=classic;html=1;rounded=0;exitX=0.5;exitY=0;exitDx=0;exitDy=0;entryX=0.5;entryY=1;entryDx=0;entryDy=0;" edge="1" parent="0aDd8CedD71GwJp79W3B-87" source="0aDd8CedD71GwJp79W3B-41" target="0aDd8CedD71GwJp79W3B-11">
          <mxGeometry width="50" height="50" relative="1" as="geometry">
            <mxPoint x="366" y="200" as="sourcePoint" />
            <mxPoint x="382" y="70" as="targetPoint" />
            <Array as="points">
              <mxPoint x="376" y="160" />
            </Array>
          </mxGeometry>
        </mxCell>
        <mxCell id="0aDd8CedD71GwJp79W3B-43" value="Đánh giá" style="ellipse;whiteSpace=wrap;html=1;" vertex="1" parent="0aDd8CedD71GwJp79W3B-87">
          <mxGeometry x="436" y="180" width="90" height="50" as="geometry" />
        </mxCell>
        <mxCell id="0aDd8CedD71GwJp79W3B-44" value="" style="endArrow=classic;html=1;rounded=0;" edge="1" parent="0aDd8CedD71GwJp79W3B-87">
          <mxGeometry width="50" height="50" relative="1" as="geometry">
            <mxPoint x="472" y="180" as="sourcePoint" />
            <mxPoint x="372" y="60" as="targetPoint" />
            <Array as="points">
              <mxPoint x="472" y="140" />
              <mxPoint x="452" y="140" />
              <mxPoint x="422" y="140" />
              <mxPoint x="372" y="140" />
            </Array>
          </mxGeometry>
        </mxCell>
        <mxCell id="0aDd8CedD71GwJp79W3B-47" value="Độ tuổi" style="ellipse;whiteSpace=wrap;html=1;" vertex="1" parent="0aDd8CedD71GwJp79W3B-87">
          <mxGeometry x="526" y="80" width="90" height="50" as="geometry" />
        </mxCell>
        <mxCell id="0aDd8CedD71GwJp79W3B-48" value="" style="endArrow=classic;html=1;rounded=0;exitX=0;exitY=0;exitDx=0;exitDy=0;entryX=1;entryY=0.75;entryDx=0;entryDy=0;" edge="1" parent="0aDd8CedD71GwJp79W3B-87" source="0aDd8CedD71GwJp79W3B-47" target="0aDd8CedD71GwJp79W3B-11">
          <mxGeometry width="50" height="50" relative="1" as="geometry">
            <mxPoint x="482" y="10" as="sourcePoint" />
            <mxPoint x="532" y="-40" as="targetPoint" />
          </mxGeometry>
        </mxCell>
        <mxCell id="0aDd8CedD71GwJp79W3B-49" value="Ngày ra mắt" style="ellipse;whiteSpace=wrap;html=1;" vertex="1" parent="0aDd8CedD71GwJp79W3B-87">
          <mxGeometry x="102" y="90" width="90" height="50" as="geometry" />
        </mxCell>
        <mxCell id="0aDd8CedD71GwJp79W3B-50" value="" style="endArrow=classic;html=1;rounded=0;exitX=0.5;exitY=0;exitDx=0;exitDy=0;entryX=0.385;entryY=1.056;entryDx=0;entryDy=0;entryPerimeter=0;" edge="1" parent="0aDd8CedD71GwJp79W3B-87" source="0aDd8CedD71GwJp79W3B-49" target="0aDd8CedD71GwJp79W3B-11">
          <mxGeometry width="50" height="50" relative="1" as="geometry">
            <mxPoint x="90" y="104" as="sourcePoint" />
            <mxPoint x="32" y="160" as="targetPoint" />
          </mxGeometry>
        </mxCell>
        <mxCell id="0aDd8CedD71GwJp79W3B-51" value="Độ dài" style="ellipse;whiteSpace=wrap;html=1;" vertex="1" parent="0aDd8CedD71GwJp79W3B-87">
          <mxGeometry y="64" width="90" height="50" as="geometry" />
        </mxCell>
        <mxCell id="0aDd8CedD71GwJp79W3B-52" value="" style="endArrow=classic;html=1;rounded=0;exitX=0.5;exitY=0;exitDx=0;exitDy=0;entryX=0;entryY=0.5;entryDx=0;entryDy=0;" edge="1" parent="0aDd8CedD71GwJp79W3B-87" source="0aDd8CedD71GwJp79W3B-51" target="0aDd8CedD71GwJp79W3B-11">
          <mxGeometry width="50" height="50" relative="1" as="geometry">
            <mxPoint x="-20" y="-56" as="sourcePoint" />
            <mxPoint x="-78" as="targetPoint" />
          </mxGeometry>
        </mxCell>
        <mxCell id="0aDd8CedD71GwJp79W3B-53" value="" style="endArrow=classic;html=1;rounded=0;exitX=0.556;exitY=0.03;exitDx=0;exitDy=0;exitPerimeter=0;" edge="1" parent="0aDd8CedD71GwJp79W3B-87" source="0aDd8CedD71GwJp79W3B-36">
          <mxGeometry width="50" height="50" relative="1" as="geometry">
            <mxPoint x="163.5" y="102.5" as="sourcePoint" />
            <mxPoint x="372" y="60" as="targetPoint" />
          </mxGeometry>
        </mxCell>
        <mxCell id="0aDd8CedD71GwJp79W3B-91" value="" style="endArrow=none;html=1;rounded=0;exitX=1;exitY=0.5;exitDx=0;exitDy=0;entryX=0;entryY=0.5;entryDx=0;entryDy=0;" edge="1" parent="1" source="0aDd8CedD71GwJp79W3B-11" target="0aDd8CedD71GwJp79W3B-88">
          <mxGeometry width="50" height="50" relative="1" as="geometry">
            <mxPoint x="550" y="760" as="sourcePoint" />
            <mxPoint x="600" y="710" as="targetPoint" />
          </mxGeometry>
        </mxCell>
        <mxCell id="0aDd8CedD71GwJp79W3B-93" value="" style="endArrow=none;html=1;rounded=0;exitX=1;exitY=0.5;exitDx=0;exitDy=0;entryX=0;entryY=0.5;entryDx=0;entryDy=0;" edge="1" parent="1" source="0aDd8CedD71GwJp79W3B-88" target="0aDd8CedD71GwJp79W3B-92">
          <mxGeometry width="50" height="50" relative="1" as="geometry">
            <mxPoint x="910" y="820" as="sourcePoint" />
            <mxPoint x="960" y="770" as="targetPoint" />
          </mxGeometry>
        </mxCell>
        <mxCell id="0aDd8CedD71GwJp79W3B-107" value="" style="group" vertex="1" connectable="0" parent="1">
          <mxGeometry x="890" y="730" width="240" height="150" as="geometry" />
        </mxCell>
        <mxCell id="0aDd8CedD71GwJp79W3B-92" value="Thể loại" style="rounded=0;whiteSpace=wrap;html=1;" vertex="1" parent="0aDd8CedD71GwJp79W3B-107">
          <mxGeometry x="60" width="120" height="60" as="geometry" />
        </mxCell>
        <mxCell id="0aDd8CedD71GwJp79W3B-106" style="edgeStyle=orthogonalEdgeStyle;rounded=0;orthogonalLoop=1;jettySize=auto;html=1;exitX=0.5;exitY=0;exitDx=0;exitDy=0;" edge="1" parent="0aDd8CedD71GwJp79W3B-107" source="0aDd8CedD71GwJp79W3B-103">
          <mxGeometry relative="1" as="geometry">
            <mxPoint x="110" y="60" as="targetPoint" />
          </mxGeometry>
        </mxCell>
        <mxCell id="0aDd8CedD71GwJp79W3B-103" value="id thể loại" style="ellipse;whiteSpace=wrap;html=1;" vertex="1" parent="0aDd8CedD71GwJp79W3B-107">
          <mxGeometry y="100" width="90" height="50" as="geometry" />
        </mxCell>
        <mxCell id="0aDd8CedD71GwJp79W3B-105" style="edgeStyle=orthogonalEdgeStyle;rounded=0;orthogonalLoop=1;jettySize=auto;html=1;entryX=0.5;entryY=1;entryDx=0;entryDy=0;" edge="1" parent="0aDd8CedD71GwJp79W3B-107" source="0aDd8CedD71GwJp79W3B-104" target="0aDd8CedD71GwJp79W3B-92">
          <mxGeometry relative="1" as="geometry" />
        </mxCell>
        <mxCell id="0aDd8CedD71GwJp79W3B-104" value="tên" style="ellipse;whiteSpace=wrap;html=1;" vertex="1" parent="0aDd8CedD71GwJp79W3B-107">
          <mxGeometry x="150" y="100" width="90" height="50" as="geometry" />
        </mxCell>
        <mxCell id="0aDd8CedD71GwJp79W3B-108" value="" style="group" vertex="1" connectable="0" parent="1">
          <mxGeometry x="560" y="720" width="220" height="180" as="geometry" />
        </mxCell>
        <mxCell id="0aDd8CedD71GwJp79W3B-88" value="Có" style="rhombus;whiteSpace=wrap;html=1;" vertex="1" parent="0aDd8CedD71GwJp79W3B-108">
          <mxGeometry x="70" width="80" height="80" as="geometry" />
        </mxCell>
        <mxCell id="0aDd8CedD71GwJp79W3B-102" style="edgeStyle=orthogonalEdgeStyle;rounded=0;orthogonalLoop=1;jettySize=auto;html=1;entryX=0.5;entryY=1;entryDx=0;entryDy=0;" edge="1" parent="0aDd8CedD71GwJp79W3B-108" source="0aDd8CedD71GwJp79W3B-95" target="0aDd8CedD71GwJp79W3B-88">
          <mxGeometry relative="1" as="geometry" />
        </mxCell>
        <mxCell id="0aDd8CedD71GwJp79W3B-95" value="Id phim" style="ellipse;whiteSpace=wrap;html=1;" vertex="1" parent="0aDd8CedD71GwJp79W3B-108">
          <mxGeometry y="130" width="90" height="50" as="geometry" />
        </mxCell>
        <mxCell id="0aDd8CedD71GwJp79W3B-101" style="edgeStyle=orthogonalEdgeStyle;rounded=0;orthogonalLoop=1;jettySize=auto;html=1;exitX=0.5;exitY=0;exitDx=0;exitDy=0;" edge="1" parent="0aDd8CedD71GwJp79W3B-108" source="0aDd8CedD71GwJp79W3B-99">
          <mxGeometry relative="1" as="geometry">
            <mxPoint x="109.99999999999955" y="80" as="targetPoint" />
          </mxGeometry>
        </mxCell>
        <mxCell id="0aDd8CedD71GwJp79W3B-99" value="id thể loại" style="ellipse;whiteSpace=wrap;html=1;" vertex="1" parent="0aDd8CedD71GwJp79W3B-108">
          <mxGeometry x="130" y="130" width="90" height="50" as="geometry" />
        </mxCell>
        <mxCell id="0aDd8CedD71GwJp79W3B-116" value="" style="endArrow=none;html=1;rounded=0;entryX=0.5;entryY=0;entryDx=0;entryDy=0;exitX=0.5;exitY=1;exitDx=0;exitDy=0;" edge="1" parent="1" source="0aDd8CedD71GwJp79W3B-127" target="0aDd8CedD71GwJp79W3B-11">
          <mxGeometry width="50" height="50" relative="1" as="geometry">
            <mxPoint x="233" y="520" as="sourcePoint" />
            <mxPoint x="184" y="690" as="targetPoint" />
          </mxGeometry>
        </mxCell>
        <mxCell id="0aDd8CedD71GwJp79W3B-123" style="edgeStyle=orthogonalEdgeStyle;rounded=0;orthogonalLoop=1;jettySize=auto;html=1;entryX=1;entryY=1;entryDx=0;entryDy=0;" edge="1" parent="1" source="0aDd8CedD71GwJp79W3B-122" target="0aDd8CedD71GwJp79W3B-13">
          <mxGeometry relative="1" as="geometry" />
        </mxCell>
        <mxCell id="0aDd8CedD71GwJp79W3B-122" value="Chất lượng phim" style="ellipse;whiteSpace=wrap;html=1;" vertex="1" parent="1">
          <mxGeometry x="990" y="190" width="90" height="50" as="geometry" />
        </mxCell>
        <mxCell id="0aDd8CedD71GwJp79W3B-127" value="xem phim" style="rhombus;whiteSpace=wrap;html=1;" vertex="1" parent="1">
          <mxGeometry x="180" y="440" width="80" height="80" as="geometry" />
        </mxCell>
        <mxCell id="0aDd8CedD71GwJp79W3B-129" value="" style="endArrow=none;html=1;rounded=0;exitX=0.5;exitY=0;exitDx=0;exitDy=0;entryX=0.5;entryY=1;entryDx=0;entryDy=0;" edge="1" parent="1" source="0aDd8CedD71GwJp79W3B-127" target="IhOkM0QZsy-EgQr038lC-6">
          <mxGeometry width="50" height="50" relative="1" as="geometry">
            <mxPoint x="400" y="500" as="sourcePoint" />
            <mxPoint x="450" y="450" as="targetPoint" />
          </mxGeometry>
        </mxCell>
      </root>
    </mxGraphModel>
  </diagram>
</mxfile>
